<svg
          class="muncheesLogo"
          width="100%"
          height="100%"
          stroke="#fff"
          fill="#fff"
        >
          <g transform="translate(85 -130) scale(.5)">
            <path
              d="M598.63,318.25l-2.37-.58c-4.13-1-8.42-2-12.93-2.73-3.49-.53-6.21-.85-8.8-1h0c-1.12-.07-2.22-.12-3.29-.14a52.19,52.19,0,0,0-10.27.73,37.18,37.18,0,0,0-14.26,5.64,13.83,13.83,0,0,0-10.15-5.84c-.76-.08-1.61-.21-2.51-.34-1.62-.24-3.45-.51-5.45-.63h0l-.89,0h-.18c-8.24-.22-16.59-.34-24.67-.44-4.49-.06-9-.1-13.48-.15-1.67,0-3.36-.07-5.14-.13-1.61,0-3.28-.09-5-.11a17,17,0,0,0-4.84.6,15.28,15.28,0,0,0-8.25-3.11l-.24,0-.51-.05c-.17,0-.33,0-.49,0-.41,0-.93-.08-1.52-.11H463l-5.33-.13c-4.72-.12-9.61-.24-14.5-.2a17.77,17.77,0,0,0-6.1.92,18.71,18.71,0,0,0-8.19-1.88l-.6,0c-2.15-.13-4.45-.23-7-.31h0c-3-.09-6-.14-8.85-.18l-4.25-.06c-7.45-.12-12.79,3.5-14.72,9.67A12.58,12.58,0,0,0,381,307.88h-.12L365,307.64l-8.15-.11h-.15c-.35,0-.7,0-1,0A13.25,13.25,0,0,0,346,312a54.77,54.77,0,0,0-22.41-6.72c-.89-.07-1.78-.12-2.68-.16s-1.51,0-2.26,0a70.43,70.43,0,0,0-14.6,1.53,58.52,58.52,0,0,0-28.87,14.71c0-.74,0-1.49,0-2.23a12.4,12.4,0,0,0-3.75-9.3A13.21,13.21,0,0,0,262,306.2h-.18l-.93,0h-1.39l-1,0h-.06l-6.08.15c-4.85.12-9.87.26-14.78.36a13.07,13.07,0,0,0-11.44,6.57,14.45,14.45,0,0,0-10.63-5c-5.32,0-10.58.16-15,.28h-.1l-4.93.14-3,.09h0a7.17,7.17,0,0,0-.81.07,13.56,13.56,0,0,0-4.76,1.32,18.45,18.45,0,0,0-6.39-.76l-3.21.05h-.85l-2.52,0c-1.95,0-4,0-6,.11h0q-.74,0-1.44.06a69.85,69.85,0,0,0-9.38,1c-5.8,1.06-9.79,4.53-11.19,9.42a13.28,13.28,0,0,0-13.18-9.38c-1.09,0-2.21,0-3.4,0s-2.21,0-3.31,0h-.25l-1.39,0-.78,0a100.43,100.43,0,0,0-15.84,2.36c-.56.12-1.1.27-1.63.44a14.23,14.23,0,0,0-7.87-1.72l-6.36.3-.46,0-1.87.1h0c-3.66.21-6.91.42-10,.66a16.48,16.48,0,0,0-11.12,5.44c-3.67,4.32-7.29,8.74-10.77,13l-.15.18L45.32,319.91a15.47,15.47,0,0,0-12.12-4.49l-2.82.2-.92.06-3.51.25-4.45.32h0q-3.73.27-7.46.57h0l-.3,0c-.26,0-.51.05-.75.09C4.83,318,.23,323.51.61,331.81c.23,5.05.45,10,.76,14.92.53,8.7,1.12,18,1.81,28.37.94,14,1.8,26.66,2.65,38.69.21,3,.54,7.61,4.57,11.1s8.65,3.16,11.4,3l1.85-.13c3.91-.29,7.84-.64,11.64-1,2.39-.21,4.78-.42,7.17-.61a12.49,12.49,0,0,0,11.72-12.37c0-.18,0-.37,0-.56,0-.69.05-1.54,0-2.52,0-.68-.06-1.36-.1-2A12.51,12.51,0,0,0,61,410.17a12.85,12.85,0,0,0,8.71-4.25L70,410c0,.4,0,.75.07,1.06a13.1,13.1,0,0,0,3.77,9.28,13.66,13.66,0,0,0,8.71,3.53l1.21.14a12.2,12.2,0,0,0,2.16.06l4.92-.25,6.66-.34c2.07-.12,3.9-.23,5.6-.35,2.16-.15,7.22-.49,10.75-4.9a13.21,13.21,0,0,0,2.79-8c.73.66,1.48,1.31,2.26,1.92a35.28,35.28,0,0,0,7.61,4.77,39.65,39.65,0,0,0,16,3.18c3,0,6,0,8.94-.07l3.23,0,1.36,0a37.38,37.38,0,0,0,26.12-11.58l.59-.64c.94,6.78,5.81,11,12.91,11.17.54,0,1.18.05,1.85.09,1.16.08,2.48.17,3.93.15h.4c3.73,0,7.59-.08,11.42-.17,1.77,0,3.41-.09,5-.16a13.28,13.28,0,0,0,10-4.42,12.08,12.08,0,0,0,2-3.1,16.37,16.37,0,0,0,12.18,5.55c5.31.1,11,.21,16.62.26h.42a28.64,28.64,0,0,0,3.63-.31l.93-.12a12.61,12.61,0,0,0,11.85-13c0-.42,0-.85,0-1.28,10.37,10.29,23.66,15.58,39.68,15.8h.58a57.73,57.73,0,0,0,27.26-7.77,12.7,12.7,0,0,0,11.48,6.95h.08q7.11.06,14.24.19l10.34.17a12.87,12.87,0,0,0,9.63-3.24,11.48,11.48,0,0,0,2.34-3.08,12.75,12.75,0,0,0,10.28,6.08c1.42.1,2.91.26,4.48.44,2,.23,4.06.46,6.24.59,1.87.11,3.83.19,6.17.26,1.87.06,3.75.1,5.63.14l2,0a14.51,14.51,0,0,0,8.37-2.29A16.69,16.69,0,0,0,441,418.4c6.81.45,13.76.83,20.28,1.2h.32a14.48,14.48,0,0,0,5.19-.69,15.79,15.79,0,0,0,7.13,2.2c1.69.12,3.33.2,4.92.28,1.28.06,2.49.12,3.69.2q7.57.51,15.14,1.06,11.3.81,22.57,1.68l2.31.15c2.25.13,4.3.18,6.26.15a18.87,18.87,0,0,0,3.7-.42,13.47,13.47,0,0,0,6.22,2.3c2.7.29,5.48.64,8.17,1,4.67.59,9.5,1.2,14.36,1.66l1.37.11a39.67,39.67,0,0,0,20.48-3.62c14.22-7,22.24-19.6,22.44-35.65.12-9.91-4-19.09-12-26.67a12.75,12.75,0,0,0,10.2-4.3,14,14,0,0,0,3.14-7.35c.26-1.77.49-3.53.71-5.23l.21-1.63c.14-1.09.29-2.17.44-3.25.38-2.79.78-5.66,1.06-8.61C610.1,325.32,606.3,320.09,598.63,318.25ZM85.29,413.14l5-.26,6.64-.34C93,412.75,89.16,412.92,85.29,413.14Zm20-9.07a5.67,5.67,0,0,1-.13,1.3v0a2,2,0,0,1-.18.42l0,0a1.38,1.38,0,0,1-.28.31h0a1.39,1.39,0,0,1-.42.23h0a3.49,3.49,0,0,1-.54.15l-.08,0c-.2,0-.42.07-.67.1h-.11l-.85.07h0c-1.69.12-3.38.22-5.06.31l-.39,0-1.26.07-4.2.21-6,.31h-.36c-3.6-.44-3.85-.11-4-2.14q0-.24,0-.51c0-.37,0-.81-.08-1.31-.76-10.16-1.61-20.31-2.43-30.46,0-.39-.12-.78-.26-1.59-.76.85-1.42,1.55-2,2.25-.21.24-.4.48-.6.73q-6.93,8.91-13.76,17.89a4.6,4.6,0,0,1-.43.51.74.74,0,0,1-.13.12,2.35,2.35,0,0,1-.29.26,1.29,1.29,0,0,1-.16.09,1.57,1.57,0,0,1-.25.14,1.21,1.21,0,0,1-.18.05,1.83,1.83,0,0,1-.25.06h0l-.23,0a1.1,1.1,0,0,1-.18,0,1.39,1.39,0,0,1-.26-.1l-.18-.07a2.82,2.82,0,0,1-.31-.21l-.16-.1c-.15-.13-.31-.27-.47-.43l0,0c-4.33-4.43-8.64-8.9-13-13.33-1.05-1.07-2.16-2.07-3.59-3.44,0,.27,0,.5,0,.73a1,1,0,0,1,0,.17c0,.43,0,.79,0,1.12a.25.25,0,0,0,0,.08c0,.18,0,.34,0,.51q.42,8.72.86,17.42c0,.11,0,.22,0,.33a.76.76,0,0,0,0,.15c.15,3.07.33,6.14.47,9.22,0,.37,0,.74,0,1.12l0,1.27a1.45,1.45,0,0,1-1.56,1.61c-1.7.13-3.4.28-5.1.43l-4.46.39-1.91.17-3.2.27-2,.16-2.1.17-1.78.12h0l-.92.05h-.16a9,9,0,0,1-1.41,0h0a2.7,2.7,0,0,1-.49-.12h0a1.4,1.4,0,0,1-.38-.22h0a1.13,1.13,0,0,1-.27-.34h0a8.72,8.72,0,0,1-.52-3.22q-1.3-19.33-2.53-38.68-.9-14.14-1.73-28.3c-.29-4.92-.5-9.84-.71-14.76-.11-2.76.33-3.32,3-3.54,6.36-.52,12.72-.94,19.08-1.4A4.18,4.18,0,0,1,37,322.22c6.93,6.7,13.87,13.37,20.94,20.25,1.22-1.4,2.38-2.64,3.45-4,5.09-6.22,10.13-12.48,15.36-18.6A5.25,5.25,0,0,1,80,318.44c6.09-.48,12.2-.79,18.3-1.06,1.9-.08,2.28.36,2.49,2.3,1,9.68,1,19.39,1.09,29.11,0,3.85.32,7.71.57,11.56.22,3.45.59,6.88.82,10.33.68,10.43,1.32,20.87,2,31.3,0,.27,0,.54,0,.8q0,.74,0,1.29ZM155.62,409h0l1.37-.08C156.53,409,156.08,409,155.62,409ZM185,372a48.62,48.62,0,0,1-5,15.26h0c-.25.47-.51.93-.79,1.38l0,.05c-.26.43-.53.86-.81,1.28l-.07.11c-.27.41-.55.8-.83,1.2l-.12.16c-.27.37-.55.73-.84,1.1l-.18.23c-.28.35-.57.69-.87,1-.07.08-.14.17-.22.25-.37.43-.76.85-1.16,1.26s-.67.67-1,1l-.35.32c-.22.2-.45.41-.68.6s-.28.24-.43.36l-.62.5-.47.35-.62.45-.49.33-.61.39-.53.32c-.2.12-.4.24-.61.35l-.54.29-.62.31-.55.26-.63.29-.58.23-.64.25-.58.2-.66.22-.59.17c-.22.07-.45.13-.67.18a6,6,0,0,1-.61.15c-.22.06-.45.11-.68.15l-.62.12-.7.12c-.21,0-.41.07-.62.09l-.72.09c-.21,0-.42.05-.64.06s-.49,0-.73.06l-.64,0h-.21l-1,0c-4,0-8,.11-12.07.11a28.57,28.57,0,0,1-11.56-2.24,24.73,24.73,0,0,1-5.23-3.32h0c-.64-.51-1.24-1-1.83-1.57l-.62-.59c-.36-.35-.72-.7-1.07-1.06s-.48-.51-.71-.77-.55-.62-.81-.93-.52-.61-.77-.93-.3-.4-.45-.6a38.29,38.29,0,0,1-3-4.5l-.12-.21a47.75,47.75,0,0,1-2.7-5.68,69.84,69.84,0,0,1-4.87-23.55c-.35-10.44-1-20.88-1.4-31.32a56.12,56.12,0,0,1,.33-5.77,2.3,2.3,0,0,1,2.13-2.19,80.06,80.06,0,0,1,15.95-2.18c2.25,0,4.51.07,6.77.05a2.06,2.06,0,0,1,2.33,1.64,20.68,20.68,0,0,1,.84,3.75c.43,8.24.76,16.48,1.13,24.72.34,7.53.51,15.11,3,22.33a38.9,38.9,0,0,0,4.24,8c2.09,3.32,7.3,3,9.94-.2a16.87,16.87,0,0,0,4-11.24c0-1.95-.09-3.89-.16-5.83s-.13-3.74-.21-5.6c-.14-3.28-.29-6.56-.42-9.84,0-.65,0-1.29-.07-1.94h.13q-.43-11.51-.87-23c-.08-2,.47-2.6,2.53-3,5.78-1.05,11.62-.94,17.46-1l4.18-.06c3.15-.08,3.52.16,3.77,3.3.19,2.37.11,4.77.22,7.15.28,6.5.61,13,.88,19.51C185.69,354,186.45,363,185,372Zm79.85,19.9v.05c0,2.12-.05,4.24,0,6.35v.05c0,1.17-.41,1.85-1.65,1.95-.33,0-.67.06-1,.1l-.94.13-.35,0-.66.07c-.13,0-.27,0-.4,0l-.51,0h-.19c-5.51-.05-11-.16-16.53-.27a5.29,5.29,0,0,1-4.61-2.48q-5.47-8.54-11-17.08c-2.2-3.44-4.34-6.92-6.51-10.38l-.57.12v.13c0,3.17-.07,6.33,0,9.49s.13,6.44.2,9.66v0c.07,3.22.14,6.43.19,9.65a3.31,3.31,0,0,1-.45,2.21,1.09,1.09,0,0,1-.33.27,3.9,3.9,0,0,1-1.76.36c-1.52.06-3,.1-4.56.14H212l-4.32.08-1.51,0-4.95.06c-.91,0-1.81,0-2.72-.09s-1.81-.13-2.72-.15c-1.67,0-2.11-.31-2.26-1.93-.29-3.37-.64-6.75-.77-10.13-.31-8.4-.53-16.8-.76-25.2q-.58-21.69-1.13-43.38c0-1.95.13-3.91.15-5.86a1.44,1.44,0,0,1,1.56-1.62c7.62-.22,15.25-.45,22.87-.5a3.55,3.55,0,0,1,2.31,1.51c3.77,5.19,7.4,10.48,11.11,15.71,2,2.77,4,5.47,6,8.21l.44-.08c.08-2.05.21-4.1.23-6.16.05-5.73.05-11.46.08-17.19,0-.52,0-1.05,0-1.57,0-1.3.53-2,2-2,7-.14,14-.35,20.92-.51,1.13,0,2.26,0,3.39-.05,1.31,0,1.91.48,1.9,1.86q0,2.44,0,4.89h0c0,1.28,0,2.57.06,3.85h0c0,.93,0,1.86.05,2.79.14,5.14.46,10.28.51,15.42.1,8.53,0,17.06.06,25.59,0,7.28.13,14.56.2,21.84h0l0,3.95Zm84.47-65.64q-4.38,6.76-8.7,13.58c-1.36,2.15-1.56,2.16-4.14,1.89-4.38-.45-8.77-1-13.17-1-5.71-.07-11.15,1.11-15.41,5.27-3.46,3.39-5.86,7.32-5.6,12.3a13.67,13.67,0,0,0,1.13,4.25,17.26,17.26,0,0,0,11.77,10.76c3.91,1.12,7.63.05,11.25-1.32,1.94-.73,3.75-1.8,5.63-2.7,2.11-1,2.94-.88,4.46.85q5.89,6.74,11.7,13.53c1.4,1.64,1.36,2.11,0,3.62A44.4,44.4,0,0,1,328,399.8l-.46.14-1.27.34-.71.17c-.38.1-.76.19-1.15.27-.58.13-1.17.24-1.76.34l-.81.13c-.41.06-.83.13-1.25.18l-.8.1-1.36.14-.68.06-2,.12h0c-13.4-.18-24.34-4.38-33-13.55-.61-.65-1.2-1.31-1.79-2l-.23-.27a49.78,49.78,0,0,1-11.82-25.15c-1.17-7.62.44-14.91,3.54-21.86,6.54-14.65,18-23.75,34.09-27.11a56.77,56.77,0,0,1,16.24-1.11,43.78,43.78,0,0,1,26,11.14C350.59,323.56,350.58,324.21,349.27,326.23Zm83.17,4.21c-.28,7-.52,14-.82,21.06-.22,5.28-.52,10.56-.76,15.85-.3,6.56-.6,13.13-.86,19.7-.17,4.45-.24,8.9-.41,13.34,0,1.47-1,2.22-2.86,2.17-2.4-.05-4.79-.1-7.19-.17h-.39l-1.55-.05-1.13,0-3.12-.16h-.05c-3.55-.21-7.08-.78-10.63-1a1.74,1.74,0,0,1-1.88-1.93c0-.57,0-1.15,0-1.73h0c0-.58,0-1.16,0-1.74.13-6.38.27-12.77.37-19.15a23.8,23.8,0,0,0-.26-2.6c-5.94,0-11.74,0-17.63,0a12.63,12.63,0,0,0-.28,1.25.44.44,0,0,0,0,.1c0,.17,0,.33,0,.49q-.5,11.64-1,23.28c0,.27,0,.51,0,.71a3.52,3.52,0,0,1-.13,1c-.2.54-.69.55-2.06.52-8.06-.13-16.13-.28-24.19-.35h-.52a1.77,1.77,0,0,1-2-2c-.07-4-.23-8-.21-12,0-7.48.15-15,.26-22.43q.33-22.07.7-44.12a51.31,51.31,0,0,1,.45-5.39c.2-1.68.67-2.05,2.48-2,8,.1,16.06.25,24.09.35,1.33,0,1.72.53,1.75,1.73.11,4.38.35,8.76.42,13.14.08,5.41,0,10.82,0,16.23,0,.38.07.76.13,1.33q9.49.19,19,.43a11.32,11.32,0,0,0,.3-1.52c.26-3.66.52-7.33.72-11,.31-5.53.55-11.07.84-16.61.16-2.94,1.05-3.79,4.07-3.74,6.57.1,13.15.13,19.7.52,5,.3,4.72.06,5.08,5.17C433.14,322.82,432.6,326.64,432.44,330.44ZM468,318.53c-.3,9.09-.47,18.18-.9,27.26-.53,11-1.32,22-1.91,33-.21,3.8-.14,7.61-.29,11.41-.13,3.61-.35,7.22-.56,10.82-.11,1.83-.47,2.22-2.23,2.12l-10.62-.6q-4.68-.27-9.36-.58h-.24a7.07,7.07,0,0,1-.72-.09c-2.13-.34-3.28-1.52-3.51-3.87a78.55,78.55,0,0,1-.25-9.46c.31-10.7.72-21.4,1.09-32.1h.19q.67-19.05,1.33-38.1c.11-3.06.3-3.45,3.43-3.47,6.5-.05,13,.18,19.5.33.67,0,1.33.1,2,.14C467.63,315.51,468.12,316,468,318.53Zm13.08,92,2.05.12h0Zm57.15-82.27c-.31,5-.57,10-1.22,15-.45,3.46-1,3.87-4.6,4.08-1,0-2,.09-3,.12h0c-1.41,0-2.82,0-4.22.06h-1l-4,0c-4.15-.05-8.3-.35-12.45-.41-1.57,0-2.61.33-3.19,1.16s-.69,2.14-.42,4l3.27.29c5,.44,10.06.89,15.06,1.38a14.39,14.39,0,0,1,3.26.65,3.42,3.42,0,0,1,2.41,3,38.59,38.59,0,0,1-.4,10.84l0,.15c-.12.63-.25,1.26-.4,1.89-.61,2.53-2.82,4.08-6.08,4.33-4.63.35-9.27.61-13.89,1a14.21,14.21,0,0,0-3.6.79l-.16.09a2.4,2.4,0,0,0-.67.49h0a3.15,3.15,0,0,0-.59.86c-.59,1.34-.09,2.15,1.38,2.26h0c.37,0,.75.05,1.13.06.77,0,1.54.06,2.31.08s1.49,0,2.24.07h.38l4.2.25h-.07c5,.29,9.91.6,14.85.95a13.89,13.89,0,0,1,2.68.56,3.53,3.53,0,0,1,2.76,3.36,20,20,0,0,1,.09,3.28c-.4,5.14-.86,10.28-1.3,15.41-.24,2.91-1.06,3.78-4,3.82-1.78,0-3.57,0-5.35-.13h-.23l-2-.13c-12.62-1-25.24-1.9-37.87-2.75-2.85-.19-5.71-.27-8.56-.47-2.54-.19-3.52-1.29-3.44-3.89.07-2.19.3-4.38.41-6.57.68-13.46,1.29-26.93,2.05-40.39.53-9.27,1.27-18.52,1.9-27.78.12-1.74.11-3.48.22-5.22.15-2.3.84-2.93,3.26-2.9,3.38,0,6.76.2,10.15.24,12.67.14,25.35.26,38,.59,2.71.07,5.4.66,8.1,1a2.5,2.5,0,0,1,2.48,2.72C538.21,324.39,538.39,326.33,538.27,328.25Zm60.27-1.84c-.12,1.25-.26,2.51-.42,3.76h0c-.19,1.56-.4,3.13-.61,4.69-.13,1-.27,2-.4,3.05-.28,2.17-.55,4.35-.85,6.52l0,.19h0a5.59,5.59,0,0,1-.12.66c0,.06,0,.12,0,.18s-.07.25-.11.36a.87.87,0,0,1-.07.17c0,.1-.09.18-.13.26l-.09.13a1.89,1.89,0,0,1-.2.2l-.08.07a1.25,1.25,0,0,1-.35.16H595a2,2,0,0,1-.36.05h-.39l-.19,0-.16,0-.66-.11h0l-.36-.07-1.65-.33-.77-.13-1.25-.21-.83-.11-1.19-.17-.89-.08-1.14-.11c-.38,0-.77,0-1.15-.06l-.85,0c-.4,0-.81,0-1.21,0s-.53,0-.8,0c-.45,0-.91,0-1.37.07l-.64,0c-.68.05-1.35.13-2,.23a12,12,0,0,0-1.95.43,6.56,6.56,0,0,0-.62.23,6.86,6.86,0,0,0-1.61.89h0a7,7,0,0,0-1.11,1.08,8.29,8.29,0,0,0-.59.81c-.06.09-.1.18-.15.27s-.2.35-.28.52-.08.22-.12.32a4.11,4.11,0,0,0-.15.46c0,.11-.05.22-.07.33a3.22,3.22,0,0,0,0,.43,1.93,1.93,0,0,0,0,.34c0,.14,0,.28.06.42s0,.22.08.33a2.82,2.82,0,0,0,.18.45,3.17,3.17,0,0,0,.21.41,6.28,6.28,0,0,0,1.16,1.4,61.77,61.77,0,0,0,5,3.82c2.42,1.79,5,3.42,7.27,5.33,6.43,5.32,10.65,12,10.57,20.37a33.61,33.61,0,0,1-.42,5.09h0a27.82,27.82,0,0,1-2.41,7.88,2,2,0,0,1-.1.21q-.3.62-.63,1.2c-.06.12-.13.24-.2.36-.21.37-.43.73-.66,1.09l-.27.4c-.24.34-.47.68-.72,1-.09.13-.19.25-.29.37-.49.64-1,1.26-1.59,1.87l-.32.34-.67.65-.68.64c-.22.2-.45.39-.68.58s-.52.44-.8.65l-.67.51-.93.66c-.22.15-.44.3-.67.44s-.73.46-1.11.69l-.59.34q-.87.5-1.8,1h0c-.6.29-1.2.55-1.81.79l-.64.22c-.41.15-.82.3-1.23.42s-.52.13-.77.2l-1.14.29-.84.15c-.36.07-.73.14-1.1.19s-.58.08-.87.11l-1.1.11-.88.05-1.09.05h-.9l-1.1,0-.89,0-.5,0-1.09-.09h0c-1.79-.17-3.57-.36-5.36-.57l-1.09-.13c-4.16-.48-8.32-1-12.48-1.51l-3.41-.41a1.81,1.81,0,0,1-1.88-2c0-3,0-6,0-8.69.42-3.71.77-7,1.19-10.36.22-1.68.74-2.15,2.45-2,2.08.11,4.14.47,6.22.64,4.63.36,9.25.56,13.73-1a13.5,13.5,0,0,0,1.63-.65,5.81,5.81,0,0,0,1.17-.78,4,4,0,0,0,1.32-2v0a3.4,3.4,0,0,0,.12-.71v-.05a3.58,3.58,0,0,0-.27-1.42,1.17,1.17,0,0,0-.05-.11,3.88,3.88,0,0,0-.36-.66l-.09-.12a5.42,5.42,0,0,0-.55-.65h0a31.38,31.38,0,0,0-5.94-4.37c-2.27-1.38-4.85-2.28-7.08-3.72-.51-.32-1-.66-1.46-1l-.39-.31c-.34-.26-.67-.52-1-.8-.12-.11-.25-.21-.37-.33-.36-.32-.7-.64-1-1l-.18-.17c-.4-.42-.79-.84-1.15-1.28l-.05-.07c-.35-.41-.67-.83-1-1.27l-.15-.22c-.29-.41-.57-.84-.83-1.27l-.07-.12a27.58,27.58,0,0,1-3.57-11,30.36,30.36,0,0,1,5.92-22.29,25.71,25.71,0,0,1,16.78-10.47c6.24-1.09,12.47-.45,18.64.49,4.84.74,9.6,2,14.36,3.12C598.56,324,598.75,324.19,598.54,326.41Z"
            ></path>
          </g>
        </svg>