<svg width="1921" height="299" viewBox="0 0 1921 299" fill="none" xmlns="http://www.w3.org/2000/svg">
<path d="M1920.74 303.443V0.433006L1916.71 -0.142578L1896.69 3.02314L1876.52 2.87924L1857.08 7.05223L1832.59 1.58418L1822.07 22.593L1804.35 22.1613L1782.03 19.5712L1756.53 22.4491L1734.06 27.3416L1712.74 23.1686L1690.7 28.0611L1670.1 11.6569L1647.78 25.9026L1626.46 17.4127L1604.85 8.77898L1583.1 5.90106L1561.35 10.3618L1540.17 25.9026L1518.28 20.1468L1496.09 12.0886L1474.49 15.2543L1452.3 11.6569L1432.86 22.3052L1412.55 22.593L1391.95 29.6439L1372.07 29.3561L1351.9 26.1904L1332.17 29.9317L1320.93 44.8969L1307.68 56.8403L1291.55 68.4959L1263.89 62.3083L1242.86 69.5031L1222.12 86.1951L1201.37 90.9437L1179.48 90.2242L1163.49 100.441L1147.65 109.938L1129.93 113.823L1105.73 117.708L1084.26 127.925L1063.81 139.868L1041.48 151.236L1019.59 137.854L999.565 145.336L978.822 141.595L958.367 144.905L938.057 140.156L917.026 157.136L897.292 144.473L876.837 143.322L852.781 120.298L826.565 136.127L801.644 124.04L783.495 132.242L764.913 133.825L745.898 124.184L728.037 124.328L706.141 128.644L680.933 134.256L660.479 123.176L641.176 111.233L622.162 99.5774L610.062 76.9857L589.752 67.3447L564.687 70.3665L549.274 50.7966L528.244 49.5016L506.925 54.394L487.19 41.0117L466.303 48.6382L445.705 37.2704L425.25 46.4798L404.651 46.9114L383.765 40.7239L363.31 44.3213L343.288 56.1208L322.545 41.5873L302.522 42.1629L282.5 58.8548L262.477 48.7821L242.455 55.2574L222.576 61.3011L202.122 41.7312L182.099 45.1847L162.509 55.6891L142.63 57.8476L120.159 57.5598L99.7043 66.6252L76.6568 67.9203L58.3629 82.8855L38.3404 87.4902L17.7417 79.7198L0.744141 80.0076V303.443H1920.74Z" fill="white"/>
</svg>
